<svg width="136" height="40" xmlns="http://www.w3.org/2000/svg">
    <g fill="none" fill-rule="evenodd">
        <path d="M48 7h88v26H48z"/>
        <path d="m57.312 28 2.472-2.472V15.04h-3.396v8.832l-.732.732h-3.528l-.732-.732V15.04H48v10.488L50.472 28h6.84zm7.496 0v-8.832l.732-.732h3.288l.732.732V28h3.384V17.512l-2.472-2.472h-6.576l-2.472 2.472V28h3.384zm16.364-14.844V10h-3.864v3.156h3.864zM84.376 28v-3.396h-3.204V15.04h-6.588v3.396h3.204v6.168h-3.204V28h9.792zm7.976 0 .72-3.396H90.18l1.32-6.18h2.976l.72-3.384H92.22l.696-3.288H89.52l-.696 3.288h-2.988l-.72 3.384h2.988L86.064 28h6.288zm-1.008-1.32h-3.66l2.04-9.612H86.7l.156-.732h3.024l.696-3.276h.732l-.696 3.276h3.012l-.156.732h-3.012l-1.884 8.88H91.5l-.156.732zM102.128 28l.72-3.372h-2.328l1.164-5.46.888-.732h1.368l1.272 1.776 3.156-2.544-2.064-2.628h-4.668l-1.128.96-.612-.96H96.86l-.72 3.384h2.124l.144.18-1.284 6.012h-2.328L94.076 28h8.052zm-.948-1.32H95.6l.156-.744h2.412l1.62-7.584-.852-1.212h-1.308l.156-.732h1.512l.936 1.332 1.62-1.332h3.636l.996 1.38-.672.528-.804-1.176h-2.988l-1.5 1.248-1.62 7.548h2.436l-.156.744zM116.776 28l3-2.472 1.704-8.016-1.944-2.472h-9.756l-.72 3.396h8.1l.576.732-.108.468H111.1l-2.988 2.472-.732 3.42L109.324 28h7.452zm-.396-1.32h-6.06l-1.452-1.836.468-2.22 2.112-1.716h7.356l.516-2.388-1.152-1.428h-7.416l.156-.744h7.74l1.476 1.86-1.392 6.54-2.352 1.932zm-.18-.732 1.86-1.512.588-2.808h-7.092L110.02 22.9l-.348 1.632 1.14 1.416h5.388zm-.36-1.344h-4.14l-.588-.732.096-.456.612-.504h5.112l-.204.96-.888.732zm7.124 7.932 1.02-4.776.168.24h5.88l3-2.472 1.704-8.016-1.944-2.472h-7.032l-3 2.472-3.192 15.024h3.396zm-1.056-1.32h-.744l2.748-12.924 2.352-1.944h5.64l1.44 1.848-1.38 6.528-2.232 1.836h-5.088l-1.38-1.752-1.356 6.408zm7.656-5.388 1.716-1.416 1.26-5.904-1.128-1.416h-4.98l-1.848 1.512-1.128 5.316 1.524 1.908h4.584zm-.456-1.224h-3.492l-.756-.96.948-4.476.888-.744h3.72l.576.744-.996 4.704-.888.732z" fill="#FFF" fill-rule="nonzero"/>
        <g>
            <path d="M0 0h40v40H0z"/>
            <path d="M15.383 0h9.234c5.349 0 7.289.557 9.244 1.603a10.904 10.904 0 0 1 4.536 4.536C39.443 8.094 40 10.034 40 15.383v9.234c0 5.349-.557 7.289-1.603 9.244a10.904 10.904 0 0 1-4.536 4.536C31.906 39.443 29.966 40 24.617 40h-9.234c-5.349 0-7.289-.557-9.244-1.603a10.904 10.904 0 0 1-4.536-4.536C.557 31.906 0 29.966 0 24.617v-9.234c0-5.349.557-7.289 1.603-9.244a10.904 10.904 0 0 1 4.536-4.536C8.094.557 10.034 0 15.383 0z" fill="#2D2F33"/>
            <path d="m18.632 28 2.472-2.472V15.04h-3.396v8.832l-.732.732h-3.528l-.732-.732V15.04H9.32v10.488L11.792 28h6.84zm11.228 0 .72-3.396h-2.892l1.32-6.18h2.976l.72-3.384h-2.976l.696-3.288h-3.396l-.696 3.288h-2.988l-.72 3.384h2.988L23.572 28h6.288zm-1.008-1.32h-3.66l2.04-9.612h-3.024l.156-.732h3.024l.696-3.276h.732l-.696 3.276h3.012l-.156.732h-3.012l-1.884 8.88h2.928l-.156.732z" fill="#BB78FE" fill-rule="nonzero"/>
        </g>
    </g>
</svg>
